<?xml version="1.0" standalone="no"?>
<!DOCTYPE svg PUBLIC "-//W3C//DTD SVG 1.1//EN" "http://www.w3.org/Graphics/SVG/1.1/DTD/svg11.dtd" >
<svg xmlns="http://www.w3.org/2000/svg" xmlns:xlink="http://www.w3.org/1999/xlink" version="1.1" viewBox="-10 0 1034 1024">
   <path fill="currentColor"
d="M546 162zM553 164l63 13q8 2 6 9l-142 670q-2 7 -10 6l-62 -14q-8 -1 -6 -9l142 -669q2 -8 9 -6zM712 334v82q0 4 3 6l115 90l-115 90q-3 2 -3 6v82q0 4 4.5 6.5t8.5 -0.5l219 -171q5 -5 6 -11t-3 -12l-3 -3l-219 -171q-4 -3 -8.5 -0.5t-4.5 6.5zM312 334v82q0 4 -3 6
l-115 90l115 90q3 2 3 6v82q0 4 -4.5 6.5t-8.5 -0.5l-219 -171q-5 -5 -6 -11t3 -12l3 -3l219 -171q4 -3 8.5 -0.5t4.5 6.5z" />
</svg>
