<?xml version="1.0" standalone="no"?>
<!DOCTYPE svg PUBLIC "-//W3C//DTD SVG 1.1//EN" "http://www.w3.org/Graphics/SVG/1.1/DTD/svg11.dtd" >
<svg xmlns="http://www.w3.org/2000/svg" xmlns:xlink="http://www.w3.org/1999/xlink" version="1.1" viewBox="-10 0 1034 1024">
   <path fill="currentColor"
d="M768 208h104q17 0 28.5 11.5t11.5 28.5v208q0 17 -11.5 28.5t-28.5 11.5h-351v88h44q7 1 8 8v236q-1 36 -24.5 59.5t-59.5 23.5t-59.5 -23.5t-24.5 -59.5v-236q1 -7 8 -8h44v-112q0 -17 11.5 -28.5t28.5 -11.5h351v-160h-80v72q0 10 -7 17t-17 7h-560q-10 0 -17 -7
t-7 -17v-208q0 -10 7 -17t17 -7h560q10 0 17 7t7 17v72z" />
</svg>
