<svg t="1571644515908" class="icon" viewBox="0 0 1024 1024" version="1.1" xmlns="http://www.w3.org/2000/svg" p-id="16952" width="200" height="200"><path d="M128 170.666667 213.333333 170.666667 213.333333 426.666667 384 426.666667 384 170.666667 469.333333 170.666667 469.333333 768 384 768 384 512 213.333333 512 213.333333 768 128 768 128 170.666667M896 768 640 768C593.066667 768 554.666667 729.6 554.666667 682.666667 554.666667 660.053333 563.2 640 577.706667 624.64L785.493333 401.493333C801.28 386.133333 810.666667 364.8 810.666667 341.333333 810.666667 294.4 772.266667 256 725.333333 256 678.4 256 640 294.4 640 341.333333L554.666667 341.333333C554.666667 247.04 631.04 170.666667 725.333333 170.666667 819.626667 170.666667 896 247.04 896 341.333333 896 388.266667 876.8 430.933333 846.08 462.08L640 682.666667 896 682.666667 896 768Z" p-id="16953"></path></svg>
