<svg t="1571644538351" class="icon" viewBox="0 0 1024 1024" version="1.1" xmlns="http://www.w3.org/2000/svg" p-id="17188" width="200" height="200"><path d="M128 170.666667 213.333333 170.666667 213.333333 426.666667 384 426.666667 384 170.666667 469.333333 170.666667 469.333333 768 384 768 384 512 213.333333 512 213.333333 768 128 768 128 170.666667M768 768 768 554.666667 554.666667 554.666667 554.666667 469.333333 768 170.666667 853.333333 170.666667 853.333333 469.333333 896 469.333333 896 554.666667 853.333333 554.666667 853.333333 768 768 768M768 469.333333 768 316.586667 659.2 469.333333 768 469.333333Z" p-id="17189"></path></svg>
