<svg t="1588068641006" class="icon" viewBox="0 0 1024 1024" version="1.1" xmlns="http://www.w3.org/2000/svg" p-id="16867" width="200" height="200"><path d="M682.666667 384 554.666667 384 554.666667 618.666667C554.666667 677.546667 506.88 725.333333 448 725.333333 389.12 725.333333 341.333333 677.546667 341.333333 618.666667 341.333333 559.786667 389.12 512 448 512 472.32 512 494.08 520.106667 512 533.333333L512 298.666667 682.666667 298.666667 682.666667 384M810.666667 128C857.6 128 896 166.4 896 213.333333L896 810.666667C896 857.6 857.6 896 810.666667 896L213.333333 896C166.4 896 128 857.6 128 810.666667L128 213.333333C128 166.4 166.4 128 213.333333 128L810.666667 128M213.333333 213.333333 213.333333 810.666667 810.666667 810.666667 810.666667 213.333333 213.333333 213.333333Z" p-id="16868"></path></svg>
