<?xml version="1.0" standalone="no"?>
<!DOCTYPE svg PUBLIC "-//W3C//DTD SVG 1.1//EN" "http://www.w3.org/Graphics/SVG/1.1/DTD/svg11.dtd" >
<svg xmlns="http://www.w3.org/2000/svg" xmlns:xlink="http://www.w3.org/1999/xlink" version="1.1" viewBox="-10 0 1034 1024">
   <path fill="currentColor"
d="M412 205q-7 0 -11 1q-112 11 -185 90t-76 193v279q1 22 15.5 36.5t36.5 15.5h168q22 -1 36.5 -15.5t15.5 -36.5v-168q-1 -22 -15.5 -37t-36.5 -15h-116v-59q1 -69 44 -118t111 -60l13 -2v-104zM884 205q-7 0 -11 1q-112 11 -185 90t-76 193v279q1 22 15.5 36.5t36.5 15.5
h168q22 -1 36.5 -15.5t15.5 -36.5v-168q-1 -22 -15.5 -37t-36.5 -15h-116v-59q1 -69 44 -118t111 -60l13 -2v-104z" />
</svg>
