<?xml version="1.0" standalone="no"?><!DOCTYPE svg PUBLIC "-//W3C//DTD SVG 1.1//EN" "http://www.w3.org/Graphics/SVG/1.1/DTD/svg11.dtd"><svg t="1583391678605" class="icon" viewBox="0 0 1024 1024" version="1.1" xmlns="http://www.w3.org/2000/svg" p-id="16846" xmlns:xlink="http://www.w3.org/1999/xlink" width="200" height="200"><defs><style type="text/css"></style></defs><path d="M85.333333 85.333333 469.333333 85.333333 469.333333 469.333333 85.333333 469.333333 85.333333 85.333333M746.666667 85.333333C853.333333 85.333333 938.666667 170.666667 938.666667 277.333333 938.666667 384 853.333333 469.333333 746.666667 469.333333 640 469.333333 554.666667 384 554.666667 277.333333 554.666667 170.666667 640 85.333333 746.666667 85.333333M277.333333 597.333333 469.333333 938.666667 85.333333 938.666667 277.333333 597.333333" p-id="16847"></path><path d="M810.666667 725.333333 938.666667 725.333333 938.666667 810.666667 810.666667 810.666667 810.666667 938.666667 725.333333 938.666667 725.333333 810.666667 597.333333 810.666667 597.333333 725.333333 725.333333 725.333333 725.333333 597.333333 810.666667 597.333333 810.666667 725.333333Z" p-id="16848" fill="#439f47"></path></svg>