<?xml version="1.0" standalone="no"?>
<!DOCTYPE svg PUBLIC "-//W3C//DTD SVG 1.1//EN" "http://www.w3.org/Graphics/SVG/1.1/DTD/svg11.dtd" >
<svg xmlns="http://www.w3.org/2000/svg" xmlns:xlink="http://www.w3.org/1999/xlink" version="1.1" viewBox="-10 0 1034 1024">
   <path fill="currentColor"
d="M256 160zM264 160h496q8 0 8 8v80q0 8 -8 8h-496q-8 0 -8 -8v-80q0 -8 8 -8zM256 565zM264 565h496q8 0 8 8v80q0 8 -8 8h-496q-8 0 -8 -8v-80q0 -8 8 -8zM112 768zM120 768h784q8 0 8 8v80q0 8 -8 8h-784q-8 0 -8 -8v-80q0 -8 8 -8zM112 363zM120 363h784q8 0 8 8v80
q0 8 -8 8h-784q-8 0 -8 -8v-80q0 -8 8 -8z" />
</svg>
