<svg t="1577090793328" class="icon" viewBox="0 0 1024 1024" version="1.1" xmlns="http://www.w3.org/2000/svg" p-id="16841" width="200" height="200"><path d="M810.666667 490.666667C810.666667 490.666667 725.333333 583.253333 725.333333 640 725.333333 686.933333 763.733333 725.333333 810.666667 725.333333 857.6 725.333333 896 686.933333 896 640 896 583.253333 810.666667 490.666667 810.666667 490.666667M222.293333 426.666667 426.666667 222.293333 631.04 426.666667M706.56 381.44 325.12 0 264.96 60.16 366.506667 161.706667 146.773333 381.44C121.6 405.333333 121.6 446.72 146.773333 471.893333L381.44 706.56C393.813333 718.933333 410.453333 725.333333 426.666667 725.333333 442.88 725.333333 459.52 718.933333 471.893333 706.56L706.56 471.893333C731.733333 446.72 731.733333 405.333333 706.56 381.44Z" p-id="16842"></path></svg>
