<?xml version="1.0" standalone="no"?><!DOCTYPE svg PUBLIC "-//W3C//DTD SVG 1.1//EN" "http://www.w3.org/Graphics/SVG/1.1/DTD/svg11.dtd"><svg t="1599705614056" class="icon" viewBox="0 0 1024 1024" version="1.1" xmlns="http://www.w3.org/2000/svg" p-id="1401" xmlns:xlink="http://www.w3.org/1999/xlink" width="200" height="200"><defs><style type="text/css"></style></defs><path d="M748 334v82q0 20 14 34t34 14 34-14 14-34V232q0-20-16-36t-36-16H606q-18 0-32 14t-14 34 14 34 32 14h68L276 674v-68q0-18-14-32t-34-14-34 14-14 32v184q0 22 16 37t36 15h186q18 0 32-14t14-33-14-33-32-14h-84zM86 214q0-54 37-91t91-37h596q54 0 91 37t37 91v596q0 54-37 91t-91 37H214q-54 0-91-37t-37-91V214z" p-id="1402"></path></svg>