<?xml version="1.0" standalone="no"?><!DOCTYPE svg PUBLIC "-//W3C//DTD SVG 1.1//EN" "http://www.w3.org/Graphics/SVG/1.1/DTD/svg11.dtd"><svg t="1597905668017" class="icon" viewBox="0 0 1024 1024" version="1.1" xmlns="http://www.w3.org/2000/svg" p-id="904" xmlns:xlink="http://www.w3.org/1999/xlink" width="200" height="200"><defs><style type="text/css"></style></defs><path d="M2.27555555 876.08888889V147.91111111c0-40.96 14.03221333-75.47221333 42.09777778-103.53777778s62.57777778-42.09777778 103.53777778-42.09777778h728.17777778c40.96 0 75.47221333 14.03221333 103.53777778 42.09777778s42.09777778 62.57777778 42.09777778 103.53777778v728.17777778c0 40.96-14.03221333 75.47221333-42.09777778 103.53777778s-62.57777778 42.09777778-103.53777778 42.09777778H147.91111111c-40.96 0-75.47221333-14.03221333-103.53777778-42.09777778s-42.09777778-62.57777778-42.09777778-103.53777778z m509.72444445 0h364.08888889V584.81777778H512z m364.08888889-436.90666667V147.91111111H512v291.27111111z m-728.17777778-72.81777777v72.81777777h218.45333334v-72.81777777h-72.81777778V147.91111111H147.91111111v72.81777778h72.81777778v145.63555556z m131.98222222 291.2711111L147.91111111 810.09777778v65.99111111h218.45333334v-72.81777778H234.38222222l131.98222223-152.46222222v-65.99111111H147.91111111v72.81777777z" p-id="905"></path></svg>