<?xml version="1.0" standalone="no"?>
<!DOCTYPE svg PUBLIC "-//W3C//DTD SVG 1.1//EN" "http://www.w3.org/Graphics/SVG/1.1/DTD/svg11.dtd" >
<svg xmlns="http://www.w3.org/2000/svg" xmlns:xlink="http://www.w3.org/1999/xlink" version="1.1" viewBox="-10 0 1204 1024">
   <path fill="currentColor"
d="M995 776q8 1 8 11v77q0 10 -8 11h-495q-7 -1 -8 -11v-77q1 -10 8 -11h495zM409 695q6 1 8.5 5.5t-1.5 9.5l-127 161q-2 3 -6.5 3t-7.5 -3l-127 -161q-3 -4 -0.5 -9t7.5 -6h254zM995 567q8 1 8 11v76q0 10 -8 11h-494q-8 -1 -9 -11v-76q1 -10 9 -11h494zM995 359q8 0 8 11
v76q0 10 -8 11h-494q-8 -1 -9 -11v-76q1 -10 9 -11h494zM289 153l127 161q4 4 1.5 9t-8.5 6h-254q-5 -1 -7.5 -6t0.5 -9l127 -161q3 -3 7.5 -3t6.5 3zM995 149q8 1 8 11v77q0 10 -8 11h-495q-7 -1 -8 -11v-77q1 -10 8 -11h495z" />
</svg>
