<?xml version="1.0" standalone="no"?>
<!DOCTYPE svg PUBLIC "-//W3C//DTD SVG 1.1//EN" "http://www.w3.org/Graphics/SVG/1.1/DTD/svg11.dtd" >
<svg xmlns="http://www.w3.org/2000/svg" xmlns:xlink="http://www.w3.org/1999/xlink" version="1.1" viewBox="-10 0 1034 1024">
   <path fill="currentColor"
d="M575 664l40 40q6 7 0 14l-116 116q-67 64 -154.5 64t-154.5 -64q-64 -67 -64 -154.5t64 -154.5l116 -116q7 -6 14 0l40 40q6 7 0 14l-116 116q-20 20 -30.5 45.5t-11 53.5t10 54.5t31.5 47.5t47.5 32t54.5 10t53.5 -11.5t45.5 -30.5l116 -116q7 -6 14 0zM449 360l-40 -40
q-6 -7 0 -14l116 -116q67 -64 154.5 -64t154.5 64q64 67 64 154.5t-64 154.5l-116 116q-7 6 -14 0l-40 -40q-6 -7 0 -14l116 -116q20 -20 30.5 -45.5t11 -53.5t-10 -54.5t-31.5 -47.5t-47.5 -32t-54.5 -10t-53.5 11.5t-45.5 30.5l-116 116q-7 6 -14 0zM371 597l226 -226
q7 -6 14 0l40 40q6 7 0 14l-226 226q-7 6 -14 0l-40 -40q-6 -7 0 -14z" />
</svg>
