<?xml version="1.0" standalone="no"?>
<!DOCTYPE svg PUBLIC "-//W3C//DTD SVG 1.1//EN" "http://www.w3.org/Graphics/SVG/1.1/DTD/svg11.dtd" >
<svg xmlns="http://www.w3.org/2000/svg" xmlns:xlink="http://www.w3.org/1999/xlink" version="1.1" viewBox="-10 0 1034 1024">
   <path fill="currentColor"
d="M553 560h-481q-7 -1 -8 -8v-80q1 -7 8 -8h220q-14 -15 -23 -32q-18 -33 -17 -76q0 -52 20 -92.5t58 -68.5q35 -25 82 -38t102 -13q59 0 107 15.5t81 46.5q48 44 60 110l2 17q-1 9 -10 10h-73q-8 0 -10 -8q-2 -12 -4 -18q-10 -31 -32 -52q-43 -43 -126 -43
q-73 0 -116.5 32.5t-44 88t52.5 85.5q18 11 43 19t64 15l8 2h436q7 1 8 8v80q-1 7 -8 8h-199q8 10 13 21q18 34 18 81q0 51 -19.5 91.5t-57 69t-89.5 43t-115 14.5q-59 0 -107.5 -13.5t-84.5 -39.5q-61 -45 -70 -119l-1 -7q1 -9 10 -10h80q7 1 10 8l2 9q16 44 60 69t110 25
q84 0 131 -36q21 -17 32 -39.5t11 -49.5q0 -59 -53 -89q-21 -12 -55 -22z" />
</svg>
